HIERARCHY
ROOT root
{
	OFFSET 0.000000 0.000000 0.000000
	CHANNELS 6 Xposition Yposition Zposition Zrotation Yrotation Xrotation
	JOINT lhip
	{
		OFFSET 0.058581 -0.082280 -0.017664
		CHANNELS 3 Zrotation Yrotation Xrotation
		JOINT lknee
		{
			OFFSET 0.043451 -0.386469 0.008037
			CHANNELS 3 Zrotation Yrotation Xrotation
			JOINT lankle
			{
				OFFSET -0.014790 -0.426874 -0.037428
				CHANNELS 3 Zrotation Yrotation Xrotation
				JOINT ltoe
				{
					OFFSET 0.041054 -0.060286 0.122042
					CHANNELS 3 Zrotation Yrotation Xrotation
					End Site
					{
						OFFSET 0.000000 0.000000 0.000000
					}
				}
			}
		}
	}
	JOINT rhip
	{
		OFFSET -0.060310 -0.090513 -0.013543
		CHANNELS 3 Zrotation Yrotation Xrotation
		JOINT rknee
		{
			OFFSET -0.043257 -0.383688 -0.004843
			CHANNELS 3 Zrotation Yrotation Xrotation
			JOINT rankle
			{
				OFFSET 0.019056 -0.420046 -0.034562
				CHANNELS 3 Zrotation Yrotation Xrotation
				JOINT rtoe
				{
					OFFSET -0.034840 -0.062106 0.130323
					CHANNELS 3 Zrotation Yrotation Xrotation
					End Site
					{
						OFFSET 0.000000 0.000000 0.000000
					}
				}
			}
		}
	}
	JOINT lowerback
	{
		OFFSET 0.004439 0.124404 -0.038385
		CHANNELS 3 Zrotation Yrotation Xrotation
		JOINT upperback
		{
			OFFSET 0.004488 0.137956 0.026820
			CHANNELS 3 Zrotation Yrotation Xrotation
			JOINT chest
			{
				OFFSET -0.002265 0.056032 0.002855
				CHANNELS 3 Zrotation Yrotation Xrotation
				JOINT lowerneck
				{
					OFFSET -0.013390 0.211636 -0.033468
					CHANNELS 3 Zrotation Yrotation Xrotation
					JOINT upperneck
					{
						OFFSET 0.010113 0.088937 0.050410
						CHANNELS 3 Zrotation Yrotation Xrotation
						End Site
						{
							OFFSET 0.000000 0.000000 0.000000
						}
					}
				}
				JOINT lclavicle
				{
					OFFSET 0.071702 0.114000 -0.018898
					CHANNELS 3 Zrotation Yrotation Xrotation
					JOINT lshoulder
					{
						OFFSET 0.122921 0.045205 -0.019046
						CHANNELS 3 Zrotation Yrotation Xrotation
						JOINT lelbow
						{
							OFFSET 0.255332 -0.015649 -0.022946
							CHANNELS 3 Zrotation Yrotation Xrotation
							JOINT lwrist
							{
								OFFSET 0.265709 0.012698 -0.007375
								CHANNELS 3 Zrotation Yrotation Xrotation
								End Site
								{
									OFFSET 0.000000 0.000000 0.000000
								}
							}
						}
					}
				}
				JOINT rclavicle
				{
					OFFSET -0.082954 0.112472 -0.023707
					CHANNELS 3 Zrotation Yrotation Xrotation
					JOINT rshoulder
					{
						OFFSET -0.113228 0.046853 -0.008472
						CHANNELS 3 Zrotation Yrotation Xrotation
						JOINT relbow
						{
							OFFSET -0.260127 -0.014369 -0.031269
							CHANNELS 3 Zrotation Yrotation Xrotation
							JOINT rwrist
							{
								OFFSET -0.269108 0.006794 -0.006027
								CHANNELS 3 Zrotation Yrotation Xrotation
								End Site
								{
									OFFSET 0.000000 0.000000 0.000000
								}
							}
						}
					}
				}
			}
		}
	}
}
MOTION
Frames: 7
Frame Time: 0.033333
-0.022634 0.281327 0.926591 97.212149 6.017829 98.076540 12.758726 -1.367384 -39.991528 -12.600557 4.673755 54.430382 4.602196 9.991188 -24.501961 0.000000 -0.000000 0.000000 -6.835041 -4.325284 -34.619379 4.331382 -7.382355 51.336436 1.557831 -7.995818 -23.600460 0.000000 -0.000000 0.000000 -4.200316 2.706135 28.191831 -2.205437 -0.002389 -17.922855 -0.413612 2.386475 3.968335 -3.513466 16.222092 -10.601948 6.846063 5.041205 -17.693911 -0.906355 26.928250 -7.716787 -32.470697 4.062375 26.366813 -147.794543 -54.414700 128.861372 -20.918800 -36.626031 -46.868402 5.052727 -20.049607 -1.309292 26.348339 -16.361339 9.857387 153.167457 45.568654 143.525595 30.993354 29.816190 -29.020589 
-0.022384 0.282506 0.925808 97.390705 6.356795 98.636697 13.002848 -1.258072 -40.787308 -12.598098 4.663155 54.763381 4.905524 10.008587 -24.595811 0.000000 -0.000000 0.000000 -6.676287 -4.488986 -35.144199 4.648399 -7.737631 51.339877 1.232076 -8.270010 -23.733020 0.000000 -0.000000 0.000000 -4.161091 2.746115 28.951518 -1.918896 -0.052072 -19.245607 -0.190988 2.309500 2.412994 -2.351450 14.829593 -13.958498 6.534699 4.616118 -12.228138 -1.866411 26.533763 -6.839003 -32.610230 3.913137 26.462472 -147.679328 -55.087577 128.449691 -20.185117 -36.408970 -47.898170 5.780057 -19.739061 -0.418291 26.734147 -15.741634 9.896623 153.225455 46.084871 143.150607 30.663976 29.578583 -29.448503 
-0.021801 0.283962 0.925925 97.593404 6.400306 99.232996 12.965376 -1.314498 -41.618680 -12.429385 4.816043 55.211427 5.150129 9.938263 -24.801305 0.000000 -0.000000 0.000000 -6.604643 -4.851040 -35.750406 4.784944 -7.687145 51.484722 0.985196 -8.484966 -23.805262 0.000000 -0.000000 0.000000 -4.173123 2.774261 29.026483 -1.664410 -0.126078 -20.021577 -0.114287 2.057203 1.261997 -1.769733 13.506954 -17.264271 6.337757 3.787463 -8.693771 -2.614985 26.509572 -6.529573 -32.510340 3.651196 26.672400 -147.854601 -55.496229 128.460669 -20.081438 -36.333053 -48.156476 6.718488 -19.776166 -0.220179 26.321315 -15.285369 10.370954 153.344082 46.496109 143.072270 30.531011 29.313393 -29.307091 
-0.020457 0.285148 0.926323 97.733841 6.155992 99.417286 12.833566 -1.391153 -41.791776 -12.386180 5.192094 55.341592 5.383692 9.724452 -24.976295 0.000000 -0.000000 0.000000 -6.624448 -5.032645 -35.999377 4.512919 -7.351827 51.824273 0.821025 -8.843759 -23.918932 0.000000 -0.000000 0.000000 -4.384825 2.784081 29.149397 -1.517893 -0.247385 -20.402172 -0.092770 1.779965 0.506857 -1.209924 11.907420 -19.770046 6.428234 2.653227 -7.052091 -3.053440 26.607847 -6.282832 -32.288888 3.449272 26.680800 -148.664413 -55.448469 129.187374 -19.261125 -36.397396 -48.555383 7.362487 -19.921200 -0.063433 25.838688 -15.051701 10.593381 153.541769 46.613599 143.262563 30.512956 29.284957 -29.299818 
-0.019263 0.285986 0.926859 97.891099 6.041450 99.237393 12.788484 -1.320086 -41.531521 -12.529202 5.381586 55.387970 5.476576 9.533047 -25.112440 0.000000 -0.000000 0.000000 -6.582644 -4.678609 -35.834551 4.244540 -7.059895 52.058130 0.775420 -9.354275 -23.973138 0.000000 -0.000000 0.000000 -4.344415 2.559340 29.450608 -1.404500 -0.318546 -20.645826 -0.031632 1.614492 0.275757 -0.632577 10.148652 -20.747155 6.063281 1.383963 -6.710905 -3.017394 26.398591 -5.991988 -32.416888 3.706481 26.561369 -148.681020 -55.432588 129.307635 -18.577532 -36.111260 -48.927589 7.252721 -19.772762 0.037294 25.769892 -15.108023 10.497235 153.559056 46.422861 143.338320 29.803115 29.138837 -29.457689 
-0.018329 0.286428 0.927025 98.158998 5.992679 98.849979 12.638293 -1.244429 -41.122714 -12.686202 5.260073 55.504064 5.402668 9.430009 -25.250067 0.000000 -0.000000 0.000000 -6.673295 -4.227953 -35.407166 4.017887 -7.142886 52.320970 0.732046 -9.750507 -24.056666 0.000000 -0.000000 0.000000 -4.000054 2.185315 29.454063 -1.283625 -0.446929 -20.165020 -0.023834 1.568369 0.478833 -0.237375 7.792134 -19.412806 6.017969 -0.094987 -7.809416 -3.267435 25.893427 -5.929857 -32.203052 3.886976 26.328574 -148.400929 -55.353797 128.774577 -18.840883 -36.207471 -48.659024 7.022517 -19.266083 -0.216496 25.676586 -15.475878 10.268850 153.396594 46.070522 143.050971 29.942718 29.266869 -29.320673 
-0.017736 0.286539 0.926578 98.269360 5.859631 98.105120 12.538250 -1.233639 -40.400572 -12.888820 5.376887 55.748476 5.200591 9.194945 -25.363206 0.000000 -0.000000 0.000000 -6.903981 -4.018933 -34.677086 3.891075 -7.221279 52.691334 0.837048 -9.726081 -24.197324 0.000000 -0.000000 0.000000 -3.685245 2.022893 28.751474 -1.132002 -0.453024 -18.628698 -0.137622 1.562383 1.382504 0.478812 5.377201 -15.183360 6.723649 -2.186562 -9.949487 -3.238297 25.467876 -6.265540 -32.393443 3.614827 26.350193 -148.306127 -55.377260 128.726311 -20.431201 -36.525398 -47.616407 6.423598 -18.661340 -0.944701 26.035001 -15.652931 10.399199 153.060104 45.979036 142.859450 30.404465 29.654465 -29.424616 
